<?xml version="1.0" encoding="UTF-8" standalone="no"?>
<!-- Created with Inkscape (http://www.inkscape.org/) -->

<svg
   width="90.256004mm"
   height="90.256477mm"
   viewBox="0 0 90.256004 90.256477"
   version="1.1"
   id="svg1"
   xml:space="preserve"
   xmlns:inkscape="http://www.inkscape.org/namespaces/inkscape"
   xmlns:sodipodi="http://sodipodi.sourceforge.net/DTD/sodipodi-0.dtd"
   xmlns:xlink="http://www.w3.org/1999/xlink"
   xmlns="http://www.w3.org/2000/svg"
   xmlns:svg="http://www.w3.org/2000/svg"><sodipodi:namedview
     id="namedview1"
     pagecolor="#505050"
     bordercolor="#eeeeee"
     borderopacity="1"
     inkscape:showpageshadow="0"
     inkscape:pageopacity="0"
     inkscape:pagecheckerboard="0"
     inkscape:deskcolor="#505050"
     inkscape:document-units="mm" /><defs
     id="defs1"><linearGradient
       id="linearGradient8"
       inkscape:collect="always"><stop
         style="stop-color:#aa0000;stop-opacity:1;"
         offset="0"
         id="stop7" /><stop
         style="stop-color:#ffc408;stop-opacity:1;"
         offset="1"
         id="stop8" /></linearGradient><linearGradient
       id="linearGradient6"
       inkscape:collect="always"><stop
         style="stop-color:#aa0000;stop-opacity:1;"
         offset="0"
         id="stop5" /><stop
         style="stop-color:#ffc108;stop-opacity:1;"
         offset="1"
         id="stop6" /></linearGradient><linearGradient
       id="linearGradient1"
       inkscape:collect="always"><stop
         style="stop-color:#aa0000;stop-opacity:1;"
         offset="0"
         id="stop1" /><stop
         style="stop-color:#ffb008;stop-opacity:1;"
         offset="1"
         id="stop2" /></linearGradient><linearGradient
       inkscape:collect="always"
       xlink:href="#linearGradient1"
       id="linearGradient2"
       x1="107.23032"
       y1="285.0285"
       x2="111.81592"
       y2="195.43469"
       gradientUnits="userSpaceOnUse" /><linearGradient
       inkscape:collect="always"
       xlink:href="#linearGradient8"
       id="linearGradient4"
       x1="50.409889"
       y1="260.02582"
       x2="55.700527"
       y2="184.36488"
       gradientUnits="userSpaceOnUse"
       gradientTransform="matrix(0.78854743,0,0,0.5464683,54.276139,98.930672)" /><linearGradient
       inkscape:collect="always"
       xlink:href="#linearGradient6"
       id="linearGradient5"
       gradientUnits="userSpaceOnUse"
       gradientTransform="matrix(2.0748832,0,0,1.2490707,17.485839,-11.160496)"
       x1="43.609859"
       y1="233.05707"
       x2="57.060532"
       y2="182.24692" /></defs><g
     inkscape:label="Layer 1"
     inkscape:groupmode="layer"
     id="layer1"
     transform="translate(-71.957165,-195.10336)"><g
       id="g8"
       transform="matrix(0.85718647,0,0,1,25.091189,0)"><path
         style="fill:url(#linearGradient2);stroke:none;stroke-width:0.264583px;stroke-linecap:butt;stroke-linejoin:miter;stroke-opacity:1"
         d="m 111.23516,195.10336 c 13.32512,10.47922 19.67389,13.18974 19.98099,23.23749 0.1567,20.09054 -29.02172,29.31316 -35.273157,45.14965 -1.222142,9.47643 5.371587,15.10437 11.640147,21.86934 -12.859224,-5.24718 -35.6767,-13.45449 -35.625896,-27.86578 0.06584,-26.05257 38.755146,-33.23566 40.336106,-50.39782 0.0574,-1.35814 -0.36501,-7.80071 -1.05819,-11.99288 z"
         id="path1"
         sodipodi:nodetypes="ccccccc" /><path
         style="fill:url(#linearGradient4);stroke:none;stroke-width:0.173683px;stroke-linecap:butt;stroke-linejoin:miter;stroke-opacity:1"
         d="m 94.607253,199.64601 c 3.427819,2.89188 9.755777,8.16337 9.456977,13.3002 -0.0469,2.3806 -13.003659,7.56074 -14.741741,10.50524 l -0.834437,2.12032 c -0.382153,-4.42537 -0.220633,-5.80797 0.556291,-8.67405 1.531024,-3.97746 3.599879,-4.46721 6.397348,-6.93924 2.295211,-2.13281 -0.253,-7.1424 -0.834438,-10.31247 z"
         id="path2"
         sodipodi:nodetypes="ccccccc" /><path
         style="fill:url(#linearGradient5);stroke:none;stroke-width:0.425943px;stroke-linecap:butt;stroke-linejoin:miter;stroke-opacity:1"
         d="m 135.95359,216.92964 c 9.28407,10.84279 6.71081,22.89192 5.3073,24.93313 -3.47435,8.8805 -24.51608,16.75259 -29.97127,24.62926 -2.55033,3.72839 -3.75943,8.26152 -3.9593,13.40019 -3.56284,-11.79061 -3.66693,-11.77626 -2.41629,-18.59185 4.02856,-9.09134 13.52868,-13.03262 20.88958,-18.68297 12.30032,-8.66686 12.73809,-12.09271 10.14998,-25.68776 z"
         id="path4"
         sodipodi:nodetypes="ccccccc" /></g></g></svg>
